<?xml version="1.0" encoding="utf-8"?>
<!-- Generator: Adobe Illustrator 23.1.0, SVG Export Plug-In . SVG Version: 6.00 Build 0)  -->
<svg version="1.1" id="Layer_1" xmlns="http://www.w3.org/2000/svg" xmlns:xlink="http://www.w3.org/1999/xlink" x="0px" y="0px"
	 viewBox="0 0 265.71 430.48" style="enable-background:new 0 0 265.71 430.48;" xml:space="preserve">
<style type="text/css">
	.st0{fill:#DCF738;}
</style>
<path class="st0" d="M0.12,215.3C0.12,145.52,0.18,75.73,0,5.94C-0.01,1,1.38-0.03,6.09,0c32.14,0.21,64.29,0.18,96.43,0.03
	c4.52-0.02,8.25,1.08,12.09,3.49c48.97,30.73,98.02,61.34,147.11,91.9c2.88,1.79,3.99,3.75,3.98,7.2
	c-0.1,77.95-0.1,155.89,0.01,233.84c0,3.32-1.12,4.99-3.86,6.63c-35.33,21.18-70.59,42.49-105.86,63.77
	c-11.66,7.03-23.33,14.05-34.96,21.13c-2.62,1.59-5.26,2.45-8.42,2.44c-35.81-0.09-71.62-0.14-107.42,0.04
	c-4.26,0.02-5.16-1.26-5.15-5.32C0.16,355.21,0.12,285.25,0.12,215.3z M68.81,94.6c0,81.6,0,162.28,0,243.72
	c41.61-24.12,82.71-47.94,124.56-72.2c-5.48-3.21-10.02-5.9-14.58-8.55c-22.39-12.98-44.77-25.96-67.2-38.88
	c-3.17-1.82-3.37-2.57,0.14-4.57c25.36-14.49,50.58-29.21,75.82-43.92c5.92-3.45,5.84-3.51-0.27-7.05
	c-24.56-14.23-49.09-28.5-73.65-42.72C99,111.97,84.34,103.55,68.81,94.6z"/>
</svg>
