<?xml version="1.0" encoding="utf-8"?>
<!-- Generator: Adobe Illustrator 16.0.0, SVG Export Plug-In . SVG Version: 6.00 Build 0)  -->
<!DOCTYPE svg PUBLIC "-//W3C//DTD SVG 1.1//EN" "http://www.w3.org/Graphics/SVG/1.1/DTD/svg11.dtd">
<svg version="1.1" id="Layer_1" xmlns="http://www.w3.org/2000/svg" xmlns:xlink="http://www.w3.org/1999/xlink" x="0px" y="0px"
	 width="2834.65px" height="2834.649px" viewBox="0 0 2834.65 2834.649" enable-background="new 0 0 2834.65 2834.649"
	 xml:space="preserve">
<path d="M543.284,1417.72c0-459.491,0.395-919.049-0.79-1378.605C542.428,6.585,551.581-0.197,582.596,0
	c211.638,1.383,423.341,1.186,634.978,0.197c29.764-0.131,54.325,7.112,79.611,22.981
	c322.461,202.353,645.447,403.915,968.698,605.148c18.965,11.787,26.274,24.693,26.208,47.411
	c-0.658,513.29-0.658,1026.514,0.066,1539.803c0,21.861-7.375,32.857-25.418,43.658
	c-232.643,139.467-464.825,279.789-697.073,419.916c-76.779,46.291-153.624,92.518-230.206,139.137
	c-17.253,10.471-34.637,16.135-55.445,16.068c-235.804-0.594-471.607-0.922-707.345,0.264c-28.052,0.131-33.979-8.297-33.912-35.031
	C543.548,2339.008,543.284,1878.331,543.284,1417.72z M995.598,622.928c0,537.324,0,1068.59,0,1604.862
	c273.996-158.826,544.634-315.678,820.21-475.428c-36.085-21.137-65.98-38.85-96.007-56.301
	c-147.435-85.471-294.804-170.941-442.503-256.018c-20.873-11.984-22.19-16.924,0.922-30.093
	c166.992-95.415,333.063-192.344,499.264-289.207c38.982-22.718,38.456-23.113-1.777-46.424
	c-161.725-93.702-323.251-187.668-484.975-281.305C1194.396,737.307,1097.86,681.862,995.598,622.928z"/>
</svg>
